<svg width="140" height="45" viewBox="0 0 140 45" fill="none" xmlns="http://www.w3.org/2000/svg">
<path fill-rule="evenodd" clip-rule="evenodd" d="M2.44775 40.5588V15.2352C2.44775 11.2058 3.52238 8.05877 5.70148 5.73524C7.88059 3.41171 10.8358 2.26465 14.597 2.26465C17.7313 2.26465 20.4179 3.3823 22.7164 5.647C24.9851 7.91171 26.1194 10.6176 26.1194 13.7646C26.1194 14.6176 26.0298 15.4117 25.8806 16.1764C25.7313 16.9411 25.4627 17.7058 25.1045 18.4705C24.4478 19.9411 23.4925 21.2352 22.2089 22.3529C21.0448 23.3823 19.7313 24.147 18.2686 24.5882C16.806 25.0588 14.9552 25.2941 12.7164 25.2941H6.71641V23.2058H13.5522C16.597 23.2058 19.0448 22.3529 20.8657 20.6764C22.6866 18.9705 23.5821 16.7058 23.5821 13.8529C23.5821 11.147 22.7164 8.91171 20.9552 7.11759C19.194 5.35288 16.9851 4.44112 14.2686 4.44112C11.2537 4.44112 8.92536 5.41171 7.28357 7.32347C5.64178 9.26465 4.83581 12.0294 4.83581 15.647V40.5294H2.44775V40.5588Z" fill="#111917"/>
<path fill-rule="evenodd" clip-rule="evenodd" d="M29.403 7.97057C29.403 7.52939 29.5522 7.14704 29.8507 6.85292C30.1493 6.5588 30.5373 6.41174 30.9552 6.41174C31.403 6.41174 31.8209 6.5588 32.1194 6.85292C32.4478 7.14704 32.597 7.52939 32.597 7.97057C32.597 8.38233 32.4478 8.73527 32.1194 9.08821C31.791 9.41174 31.403 9.58821 30.9552 9.58821C30.5373 9.58821 30.1493 9.41174 29.8507 9.08821C29.5522 8.76468 29.403 8.38233 29.403 7.97057ZM29.8806 40.5588V15.1176H32.1194V40.5294H29.8806V40.5588Z" fill="#111917"/>
<path fill-rule="evenodd" clip-rule="evenodd" d="M38.8955 7.91174H41.1343V15.1176H50.2686V17.2059H41.1343V31.4117C41.1343 33.8529 41.7313 35.647 42.9552 36.7647C44.1791 37.8823 46.0895 38.4412 48.7164 38.4412H50.2686V40.5294H49.1343C45.7015 40.5294 43.1642 39.7941 41.4627 38.3235C39.7612 36.8529 38.9254 34.6176 38.9254 31.647V7.91174H38.8955Z" fill="#111917"/>
<path fill-rule="evenodd" clip-rule="evenodd" d="M77.2836 40.5589V29.1471C77.2836 25.3236 76.3284 22.2941 74.3881 20.0294C72.4478 17.7647 69.8806 16.6471 66.6567 16.6471C63.612 16.6471 61.0746 17.7059 59.0448 19.8236C57.0149 21.9412 55.9702 24.5883 55.9702 27.7941C55.9702 31.0294 56.9851 33.6765 58.9851 35.7941C60.9851 37.9118 63.5522 38.9412 66.6269 38.9412C68.3284 38.9412 69.9105 38.5883 71.3731 37.8824C72.8358 37.1765 74.209 36.1177 75.5224 34.6765V37.5883C74.2388 38.7353 72.8657 39.6177 71.3433 40.1765C69.8508 40.7353 68.2687 41.0294 66.597 41.0294C64.7164 41.0294 62.9552 40.7059 61.3731 40.0294C59.7612 39.3824 58.3881 38.4118 57.194 37.1471C56.0299 35.8824 55.1045 34.4706 54.4776 32.8824C53.8508 31.2941 53.5224 29.6177 53.5224 27.853C53.5224 24 54.7463 20.853 57.194 18.353C59.6418 15.8824 62.7463 14.6177 66.4776 14.6177C68.8358 14.6177 70.9552 15.1471 72.8955 16.2353C74.806 17.3236 76.4179 18.8824 77.7015 20.9118C78.3284 21.9118 78.7761 23.1177 79.0746 24.5C79.3731 25.8824 79.4925 27.4706 79.4925 29.2647V40.5294H77.2836V40.5589Z" fill="#111917"/>
<path fill-rule="evenodd" clip-rule="evenodd" d="M88.0299 40.5589H85.8508V26.1765C85.8508 22.6471 86.806 19.8236 88.7164 17.7647C90.6269 15.7059 93.1642 14.6471 96.3582 14.6471C99.5523 14.6471 102.09 15.6765 104 17.7647C105.91 19.853 106.866 22.6471 106.866 26.1765V40.5589H104.687V25.4706C104.687 22.853 103.91 20.7059 102.388 19.0883C100.836 17.4706 98.8358 16.6471 96.3881 16.6471C93.9403 16.6471 91.9403 17.4706 90.3881 19.1177C88.8358 20.7647 88.0896 22.8824 88.0896 25.5V40.5589H88.0299Z" fill="#111917"/>
<path fill-rule="evenodd" clip-rule="evenodd" d="M137.881 28.1765C137.881 30 137.552 31.6765 136.866 33.2353C136.179 34.7942 135.194 36.1765 133.91 37.4412C131.463 39.853 128.448 41.0589 124.866 41.0589C123.134 41.0589 121.463 40.7353 119.91 40.0883C118.358 39.4412 116.955 38.5 115.672 37.2353C114.418 35.9706 113.433 34.5294 112.776 32.9118C112.119 31.2942 111.791 29.6177 111.791 27.8824C111.791 26.0883 112.119 24.3824 112.746 22.8236C113.373 21.2647 114.358 19.8236 115.672 18.4706C116.895 17.2353 118.328 16.2647 119.94 15.6177C121.552 14.9706 123.254 14.6471 125.015 14.6471C127.343 14.6471 129.433 15.1765 131.313 16.2353C133.164 17.2942 134.746 18.8824 136.03 21L118.03 32.853L116.985 31.1471L132.955 20.6471C131.97 19.3236 130.806 18.2942 129.493 17.6177C128.149 16.9412 126.657 16.5883 125.015 16.5883C122 16.5883 119.433 17.6765 117.343 19.8236C115.254 21.9706 114.209 24.6471 114.209 27.7647C114.209 30.8824 115.254 33.5294 117.313 35.6765C119.373 37.8236 121.91 38.9118 124.866 38.9118C127.821 38.9118 130.239 37.9118 132.209 35.9412C133.224 34.8824 134.03 33.7059 134.627 32.4118C135.194 31.1177 135.493 29.6765 135.493 28.1471H137.881V28.1765Z" fill="#111917"/>
</svg>
